<svg width="252" height="50" viewBox="0 0 252 50" fill="none" xmlns="http://www.w3.org/2000/svg">
  <g clip-path="url(#clip0)">
    <path
      d="M93.5241 15.8399C92.5431 15.0987 91.1615 14.7281 89.3794 14.7281C88.5308 14.724 87.6885 14.8726 86.8925 15.1667C86.1331 15.444 85.4214 15.8375 84.7829 16.3334C84.1855 16.7925 83.6477 17.3244 83.182 17.9167C83.0943 18.0285 83.0153 18.136 82.9364 18.2544V17.1053C82.9438 16.851 82.8991 16.5979 82.8052 16.3615C82.7113 16.125 82.5702 15.9102 82.3903 15.7303C82.2165 15.5527 82.0081 15.4126 81.778 15.3187C81.548 15.2248 81.3011 15.179 81.0526 15.1842C80.8011 15.1754 80.5505 15.2194 80.317 15.3134C80.0836 15.4075 79.8724 15.5495 79.6973 15.7303C79.5216 15.9125 79.3841 16.128 79.293 16.3642C79.2018 16.6003 79.1589 16.8523 79.1666 17.1053V33.0812C79.1585 33.334 79.201 33.586 79.2918 33.8221C79.3826 34.0583 79.5197 34.2739 79.6951 34.4562C79.8703 34.637 80.0814 34.779 80.3148 34.8731C80.5483 34.9671 80.7989 35.0111 81.0504 35.0022C81.2989 35.0075 81.5458 34.9617 81.7758 34.8678C82.0059 34.7739 82.2143 34.6338 82.3881 34.4562C82.5682 34.2764 82.7095 34.0616 82.8034 33.8252C82.8973 33.5887 82.9418 33.3355 82.9342 33.0812V23.0264C82.92 22.1699 83.148 21.3268 83.5921 20.5943C84.0419 19.8694 84.6711 19.2727 85.4188 18.8619C86.2503 18.41 87.1854 18.1832 88.1315 18.204C89.2368 18.204 90.0972 18.4233 90.7127 18.8619C91.317 19.2888 91.7719 19.8949 92.0131 20.5943C92.2753 21.3779 92.4036 22.2001 92.3925 23.0264V33.0856C92.3843 33.3384 92.4269 33.5904 92.5177 33.8265C92.6084 34.0627 92.7456 34.2783 92.921 34.4606C93.0961 34.6414 93.3072 34.7834 93.5407 34.8774C93.7741 34.9715 94.0247 35.0155 94.2763 35.0066C94.5247 35.0119 94.7716 34.9661 95.0017 34.8722C95.2318 34.7783 95.4402 34.6382 95.614 34.4606C95.794 34.2808 95.9354 34.066 96.0293 33.8296C96.1232 33.5931 96.1677 33.3399 96.16 33.0856V22.9978C96.1787 21.5874 95.982 20.1823 95.5767 18.8312C95.2302 17.6401 94.5107 16.5917 93.5241 15.8399Z"
      fill="#270D34" />
    <path
      d="M115.3 17.4979C114.454 16.6363 113.449 15.9454 112.342 15.4628C111.245 14.9774 110.058 14.7272 108.857 14.7282C107.246 14.7294 105.665 15.165 104.281 15.9891C102.807 16.8578 101.595 18.1078 100.772 19.6075C99.8801 21.1777 99.4342 23.0673 99.4342 25.2764C99.3997 27.0958 99.8347 28.8934 100.697 30.4957C101.526 32.0044 102.768 33.2458 104.276 34.0746C105.82 34.9401 107.622 35.3736 109.682 35.3751C110.97 35.3781 112.245 35.1215 113.432 34.6207C114.465 34.2186 115.415 33.6315 116.237 32.8882C116.789 32.4365 117.066 31.9343 117.066 31.3817C117.069 31.1755 117.031 30.9708 116.953 30.7798C116.875 30.5887 116.76 30.4153 116.614 30.2698C116.47 30.1163 116.294 29.9949 116.1 29.9137C115.905 29.8324 115.695 29.7931 115.485 29.7983C115.085 29.8126 114.695 29.9296 114.353 30.1382C114.053 30.3882 113.695 30.6536 113.298 30.9277C112.834 31.2346 112.326 31.4697 111.792 31.6251C111.056 31.8313 110.294 31.9267 109.531 31.908C108.383 31.9224 107.252 31.6302 106.254 31.0615C105.272 30.4927 104.464 29.6652 103.919 28.6689C103.483 27.8734 103.21 26.9989 103.116 26.0966H116.204C116.688 26.1022 117.157 25.9279 117.52 25.6075C117.702 25.4541 117.849 25.264 117.953 25.0498C118.056 24.8356 118.113 24.6019 118.121 24.3641C118.11 23.0499 117.842 21.7504 117.331 20.5396C116.849 19.4083 116.16 18.3768 115.3 17.4979ZM104.825 19.7369C105.342 19.215 105.974 18.8214 106.671 18.5878C107.377 18.3481 108.118 18.2273 108.864 18.2303C109.705 18.2274 110.535 18.414 111.294 18.7764C112.05 19.1319 112.714 19.6572 113.235 20.3115C113.762 20.9757 114.077 21.7835 114.138 22.6295V22.8926H103.246C103.316 22.5267 103.416 22.1672 103.546 21.8181C103.818 21.0407 104.254 20.331 104.825 19.7369Z"
      fill="#270D34" />
    <path
      d="M136.097 17.4979C135.251 16.6365 134.247 15.9457 133.14 15.4628C132.042 14.9776 130.854 14.7274 129.654 14.7282C128.042 14.7294 126.461 15.165 125.077 15.9891C123.604 16.8584 122.392 18.1083 121.568 19.6075C120.678 21.1777 120.232 23.0673 120.23 25.2764C120.196 27.0958 120.631 28.8934 121.493 30.4957C122.323 32.0039 123.564 33.2451 125.072 34.0746C126.616 34.9401 128.418 35.3736 130.478 35.3751C131.766 35.3785 133.042 35.1219 134.228 34.6207C135.261 34.2186 136.213 33.6315 137.035 32.8882C137.586 32.4365 137.864 31.9343 137.864 31.3817C137.866 31.1756 137.827 30.9713 137.75 30.7804C137.672 30.5895 137.558 30.416 137.412 30.2698C137.267 30.1164 137.091 29.9952 136.897 29.914C136.702 29.8327 136.492 29.7934 136.281 29.7983C135.881 29.8127 135.492 29.9297 135.151 30.1382C134.849 30.3882 134.493 30.6536 134.097 30.9277C133.631 31.2342 133.123 31.4693 132.588 31.6251C131.853 31.8311 131.092 31.9265 130.329 31.908C129.177 31.9244 128.041 31.6321 127.04 31.0615C126.057 30.4927 125.249 29.6652 124.704 28.6689C124.273 27.8725 124.004 26.998 123.915 26.0966H137C137.484 26.1026 137.953 25.9283 138.316 25.6075C138.498 25.4542 138.646 25.2642 138.75 25.05C138.854 24.8358 138.911 24.6021 138.919 24.3641C138.907 23.0499 138.638 21.7507 138.127 20.5396C137.646 19.408 136.957 18.3764 136.097 17.4979ZM125.623 19.7369C126.141 19.2154 126.773 18.8219 127.469 18.5878C128.176 18.3481 128.917 18.2273 129.662 18.2303C130.504 18.2274 131.335 18.414 132.094 18.7764C132.851 19.1314 133.514 19.6568 134.033 20.3115C134.56 20.9761 134.876 21.7836 134.939 22.6295V22.8926H124.042C124.113 22.5269 124.213 22.1675 124.342 21.8181C124.617 21.0413 125.053 20.3319 125.623 19.7369Z"
      fill="#270D34" />
    <path
      d="M153.917 15.2566C153.425 14.899 152.829 14.7133 152.222 14.7281C151.458 14.7251 150.7 14.8527 149.98 15.1053C149.28 15.3481 148.624 15.7045 148.04 16.1601C147.465 16.6075 146.964 17.1408 146.553 17.7413C146.344 18.0436 146.161 18.3627 146.004 18.6952V17.1053C146.012 16.851 145.967 16.5979 145.873 16.3615C145.779 16.125 145.638 15.9102 145.458 15.7303C145.285 15.5527 145.076 15.4126 144.846 15.3187C144.616 15.2248 144.369 15.179 144.121 15.1843C143.869 15.1754 143.619 15.2194 143.385 15.3134C143.152 15.4075 142.94 15.5495 142.765 15.7303C142.59 15.9127 142.453 16.1283 142.362 16.3644C142.271 16.6005 142.229 16.8525 142.237 17.1053V33.0812C142.229 33.3332 142.272 33.5842 142.362 33.8195C142.452 34.0549 142.589 34.2698 142.763 34.4518C142.938 34.6326 143.149 34.7746 143.383 34.8687C143.616 34.9627 143.867 35.0067 144.118 34.9978C144.367 35.0031 144.614 34.9573 144.844 34.8634C145.074 34.7695 145.282 34.6294 145.456 34.4518C145.636 34.272 145.778 34.0573 145.871 33.8208C145.965 33.5843 146.01 33.3311 146.002 33.0768V24.0329C145.991 23.2003 146.126 22.3721 146.399 21.5856C146.642 20.8932 147.005 20.2489 147.472 19.6821C147.885 19.1749 148.399 18.7583 148.98 18.4584C149.48 18.1952 150.034 18.0532 150.599 18.0439C151.026 18.0333 151.451 18.1171 151.842 18.2895C152.185 18.4499 152.56 18.533 152.939 18.5329C153.373 18.5304 153.791 18.3617 154.105 18.0614C154.456 17.7479 154.634 17.2522 154.634 16.5746C154.633 16.3127 154.567 16.0551 154.442 15.825C154.317 15.5949 154.136 15.3996 153.917 15.2566Z"
      fill="#270D34" />
    <path
      d="M172.868 14.8794C172.615 14.8713 172.363 14.9174 172.129 15.0146C171.895 15.1118 171.684 15.2579 171.511 15.443C171.164 15.8089 170.975 16.2965 170.985 16.8005V17.5439C170.685 17.2035 170.357 16.8895 170.004 16.6053C169.284 16.0287 168.477 15.5711 167.612 15.25C166.373 14.7962 165.047 14.6314 163.734 14.7683C162.422 14.9051 161.158 15.3399 160.039 16.0395C158.65 16.9414 157.526 18.1962 156.781 19.6755C155.977 21.2223 155.575 23.0117 155.575 25.0439C155.541 26.8865 155.955 28.7098 156.781 30.3575C157.531 31.8527 158.666 33.1207 160.07 34.0307C161.462 34.9252 163.087 35.3904 164.741 35.3685C165.678 35.3765 166.607 35.2069 167.48 34.8685C168.283 34.5576 169.032 34.1257 169.704 33.5878C170.182 33.2016 170.612 32.7599 170.985 32.272V33.079C170.977 33.3317 171.019 33.5834 171.109 33.8195C171.2 34.0556 171.336 34.2713 171.511 34.454C171.872 34.8041 172.355 34.9998 172.859 34.9998C173.362 34.9998 173.845 34.8041 174.206 34.454C174.386 34.2742 174.527 34.0594 174.621 33.823C174.715 33.5865 174.76 33.3333 174.752 33.079V16.8005C174.76 16.5462 174.715 16.293 174.621 16.0565C174.527 15.82 174.386 15.6053 174.206 15.4255C174.032 15.2481 173.824 15.1081 173.594 15.0142C173.364 14.9203 173.117 14.8744 172.868 14.8794ZM168.292 31.0044C167.362 31.5947 166.284 31.9081 165.183 31.9081C164.082 31.9081 163.004 31.5947 162.075 31.0044C161.168 30.3848 160.445 29.5316 159.982 28.5351C159.487 27.4372 159.23 26.2464 159.23 25.0417C159.23 23.8371 159.487 22.6462 159.982 21.5483C160.452 20.5564 161.181 19.7099 162.092 19.0987C163.018 18.5087 164.094 18.1953 165.192 18.1953C166.29 18.1953 167.365 18.5087 168.292 19.0987C169.194 19.7148 169.915 20.5604 170.382 21.5483C170.879 22.6458 171.136 23.8368 171.136 25.0417C171.136 26.2466 170.879 27.4376 170.382 28.5351C169.919 29.5311 169.198 30.3841 168.292 31.0044Z"
      fill="#270D34" />
    <path
      d="M206.022 15.9518C205.067 15.212 203.724 14.8414 201.991 14.84C200.963 14.8341 199.946 15.0589 199.015 15.4979C198.128 15.9086 197.319 16.4695 196.623 17.1557C196.068 17.6925 195.595 18.3072 195.217 18.9803C194.885 17.9273 194.285 16.9788 193.476 16.2281C192.472 15.3114 191.04 14.8524 189.182 14.8509C188.344 14.8433 187.512 14.9974 186.732 15.3049C185.997 15.5959 185.306 15.9886 184.68 16.4715C184.09 16.918 183.573 17.452 183.145 18.0549C183.09 18.1316 183.044 18.2084 182.993 18.2873V17.1053C183.001 16.851 182.956 16.5979 182.862 16.3615C182.768 16.125 182.627 15.9102 182.447 15.7303C182.274 15.5527 182.065 15.4126 181.835 15.3187C181.605 15.2248 181.358 15.179 181.11 15.1843C180.858 15.1754 180.608 15.2194 180.374 15.3134C180.141 15.4075 179.93 15.5495 179.754 15.7303C179.579 15.9127 179.442 16.1283 179.351 16.3644C179.26 16.6005 179.218 16.8525 179.226 17.1053V33.0812C179.218 33.3341 179.26 33.586 179.351 33.8221C179.442 34.0583 179.579 34.2739 179.754 34.4562C179.93 34.637 180.141 34.779 180.374 34.8731C180.608 34.9671 180.858 35.0111 181.11 35.0022C181.358 35.0075 181.605 34.9617 181.835 34.8678C182.065 34.7739 182.274 34.6338 182.447 34.4562C182.627 34.2764 182.769 34.0617 182.863 33.8252C182.957 33.5887 183.001 33.3355 182.993 33.0812V23.0922C182.985 22.2472 183.2 21.4151 183.616 20.6799C184.031 19.9521 184.638 19.3526 185.371 18.9474C186.166 18.5093 187.062 18.2884 187.969 18.3071C189 18.3071 189.804 18.5205 190.382 18.9474C190.963 19.3807 191.391 19.9873 191.605 20.6799C191.852 21.4599 191.972 22.2742 191.963 23.0922V33.0768C191.955 33.3297 191.997 33.5816 192.088 33.8178C192.179 34.0539 192.316 34.2695 192.491 34.4518C192.856 34.802 193.342 34.9976 193.848 34.9976C194.353 34.9976 194.839 34.802 195.204 34.4518C195.379 34.2691 195.515 34.0534 195.606 33.8173C195.696 33.5812 195.738 33.3295 195.73 33.0768V23.1294C195.721 22.2821 195.942 21.4482 196.371 20.7172C196.801 19.9838 197.418 19.3782 198.16 18.9628C198.959 18.5161 199.863 18.2891 200.779 18.3049C201.802 18.3049 202.612 18.5242 203.208 18.9628C203.798 19.401 204.234 20.0154 204.452 20.7172C204.699 21.497 204.821 22.3113 204.811 23.1294V33.0768C204.804 33.3311 204.848 33.5843 204.942 33.8208C205.036 34.0573 205.177 34.272 205.357 34.4518C205.718 34.8023 206.201 34.9983 206.704 34.9983C207.207 34.9983 207.69 34.8023 208.05 34.4518C208.225 34.2692 208.362 34.0536 208.453 33.8175C208.544 33.5814 208.587 33.3296 208.579 33.0768V23.0922C208.597 21.683 208.406 20.2789 208.013 18.9255C207.681 17.7485 206.984 16.7072 206.022 15.9518Z"
      fill="#270D34" />
    <path
      d="M227.009 16.0658C225.866 15.395 224.602 14.9572 223.289 14.7778C221.977 14.5984 220.642 14.6809 219.361 15.0206C218.08 15.3604 216.88 15.9505 215.829 16.757C214.777 17.5635 213.897 18.5704 213.237 19.7193C212.346 21.2661 211.901 23.0556 211.899 25.0878C211.863 26.9522 212.324 28.7925 213.237 30.4189C214.096 31.9328 215.346 33.1884 216.855 34.0549C218.407 34.9206 220.155 35.3751 221.932 35.3751C223.709 35.3751 225.457 34.9206 227.009 34.0549C228.509 33.1838 229.751 31.9288 230.605 30.4189C231.519 28.7929 231.981 26.9523 231.943 25.0878C231.943 23.0556 231.497 21.2661 230.605 19.7193C229.747 18.2076 228.507 16.9478 227.009 16.0658ZM227.347 28.6294C226.831 29.6213 226.057 30.4549 225.105 31.0417C224.149 31.623 223.049 31.9232 221.93 31.9079C220.821 31.9216 219.731 31.6213 218.785 31.0417C217.831 30.4521 217.051 29.6196 216.524 28.6294C215.966 27.5225 215.675 26.3 215.675 25.0603C215.675 23.8206 215.966 22.5982 216.524 21.4913C217.059 20.5068 217.837 19.6762 218.785 19.079C219.728 18.4914 220.819 18.187 221.93 18.2018C223.053 18.1836 224.158 18.488 225.114 19.079C226.059 19.6733 226.832 20.5051 227.355 21.4913C227.901 22.602 228.184 23.8229 228.184 25.0603C228.184 26.2978 227.901 27.5187 227.355 28.6294H227.347Z"
      fill="#270D34" />
    <path
      d="M251.346 15.5702C250.986 15.2185 250.502 15.0217 249.999 15.0217C249.495 15.0217 249.012 15.2185 248.651 15.5702C248.471 15.75 248.33 15.9647 248.236 16.2012C248.142 16.4376 248.098 16.6908 248.105 16.9452V27.1162C248.125 27.9899 247.917 28.8536 247.502 29.6228C247.115 30.3238 246.541 30.9038 245.844 31.2982C245.083 31.7158 244.225 31.9239 243.357 31.9013C241.928 31.9013 240.848 31.5183 240.118 30.7522C239.389 29.9861 239.023 28.7741 239.022 27.1162V16.9517C239.03 16.6974 238.985 16.4442 238.891 16.2078C238.797 15.9713 238.656 15.7565 238.476 15.5767C238.115 15.2251 237.632 15.0283 237.128 15.0283C236.625 15.0283 236.141 15.2251 235.781 15.5767C235.606 15.7594 235.469 15.9751 235.379 16.2112C235.289 16.4473 235.246 16.6991 235.254 16.9517V28.136C235.23 29.4292 235.5 30.7111 236.046 31.8838C236.54 32.9416 237.332 33.8324 238.325 34.4474C239.4 35.0848 240.634 35.4049 241.884 35.3706C242.888 35.3825 243.888 35.2291 244.842 34.9167C245.689 34.6407 246.476 34.2061 247.16 33.636C247.528 33.3234 247.857 32.9669 248.138 32.5746V33.261C248.138 34.6162 247.919 35.7207 247.48 36.5746C247.065 37.4042 246.381 38.0684 245.539 38.4583C244.554 38.8876 243.486 39.0935 242.412 39.0614C241.589 39.0753 240.771 38.9348 240 38.6469C239.298 38.3706 238.733 38.1447 238.305 37.9693C238.095 37.8821 237.868 37.842 237.641 37.8518C237.413 37.8617 237.191 37.9212 236.989 38.0263C236.562 38.2383 236.261 38.6462 236.086 39.25C235.997 39.4622 235.962 39.6925 235.981 39.9215C236 40.1505 236.075 40.3715 236.197 40.5658C236.516 41.022 236.961 41.3749 237.478 41.5811C238.18 41.9233 238.93 42.1584 239.702 42.2785C240.597 42.4418 241.505 42.524 242.414 42.5241C244.066 42.5507 245.705 42.2232 247.219 41.5636C248.634 40.9253 249.818 39.8662 250.61 38.5307C251.449 37.1491 251.869 35.3531 251.871 33.1425V16.9517C251.88 16.6981 251.838 16.4452 251.748 16.208C251.658 15.9707 251.522 15.7538 251.346 15.5702Z"
      fill="#270D34" />
    <path fill-rule="evenodd" clip-rule="evenodd"
      d="M63.0921 27.5022C57.9649 32.8947 51.4123 33.0943 47.9715 36.1842C48.1711 33.6996 48.7237 32.3399 51.1185 30.6294C52.5439 29.5724 53.8794 28.239 52.8904 26.3728C50.4781 28.261 47.2259 29.4232 44.8706 31.1667C39.9781 34.8202 38.7434 42.1053 42.2807 47.8289C43.1996 38.1798 62.1996 35.7675 65.8531 26.7588C65.3693 26.6138 64.8546 26.6066 64.3669 26.7379C63.8792 26.8692 63.4378 27.1339 63.0921 27.5022Z"
      fill="#006A4E" />
    <path fill-rule="evenodd" clip-rule="evenodd"
      d="M65.1316 23.2105C63.2741 22.7565 61.7719 23.4057 60.8267 24.9342C59.0943 27.6469 56.5899 30.2872 53.5899 31.9057C59.0351 30.4166 62.5 27.2324 65.1316 23.2105Z"
      fill="#006A4E" />
    <path fill-rule="evenodd" clip-rule="evenodd"
      d="M57.2631 24.7193C56.7412 26.2259 56.1272 28.2566 54.5548 30.0263C57.489 28.2105 59.5987 25.7368 60.6952 22.625C59.1798 22.6974 57.7895 23.193 57.2631 24.7193Z"
      fill="#006A4E" />
    <path fill-rule="evenodd" clip-rule="evenodd"
      d="M54.3596 26.2478C54.2193 27.296 54.0855 28.6995 53.2938 30.0614C54.9671 28.4912 56.0153 26.6031 56.3179 24.432C55.3443 24.6798 54.5044 25.1842 54.3596 26.2478Z"
      fill="#006A4E" />
    <path fill-rule="evenodd" clip-rule="evenodd"
      d="M64.8552 14.0986C57.7741 11.3267 53.3947 22.7697 46.6052 21.1732C51.7302 24.6293 55.9978 19.239 60.9232 18.5065C65.5022 17.8486 67.9561 21.5394 66.4758 25.5767C70.2368 20.8486 68.5636 15.5526 64.8552 14.0986Z"
      fill="#931426" />
    <path fill-rule="evenodd" clip-rule="evenodd"
      d="M62.5768 12.5439C63.3605 12.6491 64.1579 12.5207 64.869 12.1748C65.58 11.8289 66.1732 11.2808 66.5742 10.5992C66.9752 9.91762 67.1661 9.13287 67.123 8.34327C67.0799 7.55367 66.8048 6.79434 66.3321 6.16042C65.8593 5.5265 65.2101 5.04618 64.4656 4.77964C63.7211 4.51311 62.9144 4.47221 62.1468 4.66208C61.3792 4.85194 60.6846 5.26413 60.1502 5.84699C59.6158 6.42984 59.2653 7.15745 59.1426 7.93864C58.9889 9.0045 59.2641 10.0878 59.9078 10.9511C60.5516 11.8144 61.5114 12.3872 62.5768 12.5439Z"
      fill="#931426" />
    <path d="M5.09649 8.70398H3.39255V10.4079H5.09649V8.70398Z" fill="url(#paint0_linear)" />
    <path d="M2.46928 21.8969H0.100861V24.2675H2.46928V21.8969Z" fill="url(#paint1_linear)" />
    <path d="M1.95614 15.796H0.625V17.1272H1.95614V15.796Z" fill="url(#paint2_linear)" />
    <path d="M4.32677 17.1294H1.95834V19.4978H4.32677V17.1294Z" fill="url(#paint3_linear)" />
    <path d="M7.11622 21.3706H4.48026V24.0066H7.11622V21.3706Z" fill="url(#paint4_linear)" />
    <path d="M12.7763 22.7236H9.125V25.7938H12.7763V22.7236Z" fill="url(#paint5_linear)" />
    <path d="M7.74561 11.0768H5.10965V13.7127H7.74561V11.0768Z" fill="url(#paint6_linear)" />
    <path d="M10.0921 6.58337H7.72369V8.9518H10.0921V6.58337Z" fill="url(#paint7_linear)" />
    <path d="M12.0044 18.3838H9.63379V20.7544H12.0044V18.3838Z" fill="url(#paint8_linear)" />
    <path d="M14.0461 27.7478H11.5066V30.2105H14.0461V27.7478Z" fill="url(#paint9_linear)" />
    <path d="M8.07677 25.7938H5.80704V28.0636H8.07677V25.7938Z" fill="url(#paint10_linear)" />
    <path d="M5.80482 28.0636H4.7785V29.0899H5.80482V28.0636Z" fill="url(#paint11_linear)" />
    <path d="M23.5504 33.4232H21.8487V35.125H23.5504V33.4232Z" fill="url(#paint12_linear)" />
    <path d="M21.8487 35.1251H21.0789V35.8949H21.8487V35.1251Z" fill="url(#paint13_linear)" />
    <path d="M10.9496 30.9102H9.75439V32.1053H10.9496V30.9102Z" fill="url(#paint14_linear)" />
    <path d="M17.6864 30.7872H15.0504V33.4232H17.6864V30.7872Z" fill="url(#paint15_linear)" />
    <path d="M14.3158 5.8158H11.5482V8.58334H14.3158V5.8158Z" fill="url(#paint16_linear)" />
    <path d="M10.0482 11.8464V14.9473H13.1491V11.8464H11.0044H10.0482Z" fill="url(#paint17_linear)" />
    <path d="M15.0811 24.1338V26.7698H16.3531V27.2456H18.6228V26.1119H17.4868V24.1338H15.0811Z"
      fill="url(#paint18_linear)" />
    <path d="M13.3465 9.30481H11.6425V11.0088H13.3465V9.30481Z" fill="url(#paint19_linear)" />
    <path d="M10.2061 16.397H8.875V17.7281H10.2061V16.397Z" fill="url(#paint20_linear)" />
    <path d="M15.2303 21.7676H14.443V22.5549H15.2303V21.7676Z" fill="url(#paint21_linear)" />
    <path d="M19.1996 31.511H18.0044V32.7062H19.1996V31.511Z" fill="url(#paint22_linear)" />
    <path
      d="M58.9583 0.124968C51.7083 0.124968 48.0833 3.4276 44.4605 10.0351C40.8355 3.4276 37.2105 0.124968 29.9627 0.124968C26.2882 0.100704 22.7274 1.39816 19.9298 3.78067L17.9561 6.05918V5.81576H16.5877V7.18418H18.3421V8.5833H14.3158V10.4079H18.603V9.81137H19.1469V12.4429H21.3991V15.5482H18.2982V12.9166H16.046L15.9956 14.3179H15.9737V16.3508H18.0022V18.7215H15.3947C15.5 19.1601 15.6272 19.5986 15.7631 20.0372H17.8859V18.989H20.2544V21.3596H18.7741V21.4846L18.9123 21.5855L18.7741 21.7719V23.3311H21.0789V22.103H23.4912V24.7346H21.0263V26.3947H20.0438V27.7478H17.4868V28.7522H23.6842V30.0679H21.9013V31.3947H25.9386V34.0263H24.3837C29.0351 39.3837 34.5855 44.2982 39.0767 48.1951L41.7215 49.8772C33.182 35.307 36.4386 17.1052 48.7763 7.8947C52.4824 5.14909 57.0504 2.96707 61.4583 0.570143C60.0987 0.274091 58.9583 0.124968 58.9583 0.124968ZM25.7368 27.3706H23.3245V24.739H25.7368V27.3706Z"
      fill="url(#paint23_linear)" />
  </g>
  <defs>
    <linearGradient id="paint0_linear" x1="-5.5263" y1="10.6601" x2="60.1864" y2="3.23032"
      gradientUnits="userSpaceOnUse">
      <stop stop-color="#FFD200" />
      <stop offset="0.32" stop-color="#FF8607" />
      <stop offset="0.7" stop-color="#FF3C15" />
      <stop offset="1" stop-color="#FF0558" />
    </linearGradient>
    <linearGradient id="paint1_linear" x1="145.806" y1="602.721" x2="855.497" y2="522.528"
      gradientUnits="userSpaceOnUse">
      <stop stop-color="#FFD200" />
      <stop offset="0.32" stop-color="#FF8607" />
      <stop offset="0.7" stop-color="#FF3C15" />
      <stop offset="1" stop-color="#FF0558" />
    </linearGradient>
    <linearGradient id="paint2_linear" x1="78.0308" y1="302.258" x2="476.894" y2="257.159"
      gradientUnits="userSpaceOnUse">
      <stop stop-color="#FFD200" />
      <stop offset="0.32" stop-color="#FF8607" />
      <stop offset="0.7" stop-color="#FF3C15" />
      <stop offset="1" stop-color="#FF0558" />
    </linearGradient>
    <linearGradient id="paint3_linear" x1="142.169" y1="548.792" x2="851.843" y2="468.55"
      gradientUnits="userSpaceOnUse">
      <stop stop-color="#FFD200" />
      <stop offset="0.32" stop-color="#FF8607" />
      <stop offset="0.7" stop-color="#FF3C15" />
      <stop offset="1" stop-color="#FF0558" />
    </linearGradient>
    <linearGradient id="paint4_linear" x1="166.803" y1="668.579" x2="956.643" y2="579.273"
      gradientUnits="userSpaceOnUse">
      <stop stop-color="#FFD200" />
      <stop offset="0.32" stop-color="#FF8607" />
      <stop offset="0.7" stop-color="#FF3C15" />
      <stop offset="1" stop-color="#FF0558" />
    </linearGradient>
    <linearGradient id="paint5_linear" x1="237.953" y1="806.324" x2="1326.37" y2="659.925"
      gradientUnits="userSpaceOnUse">
      <stop stop-color="#FFD200" />
      <stop offset="0.32" stop-color="#FF8607" />
      <stop offset="0.7" stop-color="#FF3C15" />
      <stop offset="1" stop-color="#FF0558" />
    </linearGradient>
    <linearGradient id="paint6_linear" x1="153.699" y1="536.952" x2="943.566" y2="447.645"
      gradientUnits="userSpaceOnUse">
      <stop stop-color="#FFD200" />
      <stop offset="0.32" stop-color="#FF8607" />
      <stop offset="0.7" stop-color="#FF3C15" />
      <stop offset="1" stop-color="#FF0558" />
    </linearGradient>
    <linearGradient id="paint7_linear" x1="135.997" y1="432.757" x2="845.695" y2="352.515"
      gradientUnits="userSpaceOnUse">
      <stop stop-color="#FFD200" />
      <stop offset="0.32" stop-color="#FF8607" />
      <stop offset="0.7" stop-color="#FF3C15" />
      <stop offset="1" stop-color="#FF0558" />
    </linearGradient>
    <linearGradient id="paint8_linear" x1="152.534" y1="573.202" x2="862.866" y2="492.862"
      gradientUnits="userSpaceOnUse">
      <stop stop-color="#FFD200" />
      <stop offset="0.32" stop-color="#FF8607" />
      <stop offset="0.7" stop-color="#FF3C15" />
      <stop offset="1" stop-color="#FF0558" />
    </linearGradient>
    <linearGradient id="paint9_linear" x1="177.03" y1="710.905" x2="937.375" y2="622.257"
      gradientUnits="userSpaceOnUse">
      <stop stop-color="#FFD200" />
      <stop offset="0.32" stop-color="#FF8607" />
      <stop offset="0.7" stop-color="#FF3C15" />
      <stop offset="1" stop-color="#FF0558" />
    </linearGradient>
    <linearGradient id="paint10_linear" x1="150.616" y1="627.729" x2="830.743" y2="550.83"
      gradientUnits="userSpaceOnUse">
      <stop stop-color="#FFD200" />
      <stop offset="0.32" stop-color="#FF8607" />
      <stop offset="0.7" stop-color="#FF3C15" />
      <stop offset="1" stop-color="#FF0558" />
    </linearGradient>
    <linearGradient id="paint11_linear" x1="71.0272" y1="307.005" x2="378.553" y2="272.223"
      gradientUnits="userSpaceOnUse">
      <stop stop-color="#FFD200" />
      <stop offset="0.32" stop-color="#FF8607" />
      <stop offset="0.7" stop-color="#FF3C15" />
      <stop offset="1" stop-color="#FF0558" />
    </linearGradient>
    <linearGradient id="paint12_linear" x1="285.416" y1="579.653" x2="377.379" y2="490.702"
      gradientUnits="userSpaceOnUse">
      <stop stop-color="#FFD200" />
      <stop offset="0.32" stop-color="#FF8607" />
      <stop offset="0.7" stop-color="#FF3C15" />
      <stop offset="1" stop-color="#FF0558" />
    </linearGradient>
    <linearGradient id="paint13_linear" x1="140.365" y1="282.263" x2="181.962" y2="242.037"
      gradientUnits="userSpaceOnUse">
      <stop stop-color="#FFD200" />
      <stop offset="0.32" stop-color="#FF8607" />
      <stop offset="0.7" stop-color="#FF3C15" />
      <stop offset="1" stop-color="#FF0558" />
    </linearGradient>
    <linearGradient id="paint14_linear" x1="121.001" y1="376.137" x2="401.569" y2="308.909"
      gradientUnits="userSpaceOnUse">
      <stop stop-color="#FFD200" />
      <stop offset="0.32" stop-color="#FF8607" />
      <stop offset="0.7" stop-color="#FF3C15" />
      <stop offset="1" stop-color="#FF0558" />
    </linearGradient>
    <linearGradient id="paint15_linear" x1="191.607" y1="803.967" x2="981.473" y2="714.635"
      gradientUnits="userSpaceOnUse">
      <stop stop-color="#FFD200" />
      <stop offset="0.32" stop-color="#FF8607" />
      <stop offset="0.7" stop-color="#FF3C15" />
      <stop offset="1" stop-color="#FF0558" />
    </linearGradient>
    <linearGradient id="paint16_linear" x1="161.272" y1="502.396" x2="990.567" y2="408.632"
      gradientUnits="userSpaceOnUse">
      <stop stop-color="#FFD200" />
      <stop offset="0.32" stop-color="#FF8607" />
      <stop offset="0.7" stop-color="#FF3C15" />
      <stop offset="1" stop-color="#FF0558" />
    </linearGradient>
    <linearGradient id="paint17_linear" x1="187.357" y1="652.643" x2="1116.54" y2="547.585"
      gradientUnits="userSpaceOnUse">
      <stop stop-color="#FFD200" />
      <stop offset="0.32" stop-color="#FF8607" />
      <stop offset="0.7" stop-color="#FF3C15" />
      <stop offset="1" stop-color="#FF0558" />
    </linearGradient>
    <linearGradient id="paint18_linear" x1="240.827" y1="847.744" x2="1298.15" y2="711.685"
      gradientUnits="userSpaceOnUse">
      <stop stop-color="#FFD200" />
      <stop offset="0.32" stop-color="#FF8607" />
      <stop offset="0.7" stop-color="#FF3C15" />
      <stop offset="1" stop-color="#FF0558" />
    </linearGradient>
    <linearGradient id="paint19_linear" x1="106.348" y1="337.332" x2="616.936" y2="279.602"
      gradientUnits="userSpaceOnUse">
      <stop stop-color="#FFD200" />
      <stop offset="0.32" stop-color="#FF8607" />
      <stop offset="0.7" stop-color="#FF3C15" />
      <stop offset="1" stop-color="#FF0558" />
    </linearGradient>
    <linearGradient id="paint20_linear" x1="87.3191" y1="312.056" x2="486.182" y2="266.944"
      gradientUnits="userSpaceOnUse">
      <stop stop-color="#FFD200" />
      <stop offset="0.32" stop-color="#FF8607" />
      <stop offset="0.7" stop-color="#FF3C15" />
      <stop offset="1" stop-color="#FF0558" />
    </linearGradient>
    <linearGradient id="paint21_linear" x1="63.1206" y1="216.825" x2="299.021" y2="190.152"
      gradientUnits="userSpaceOnUse">
      <stop stop-color="#FFD200" />
      <stop offset="0.32" stop-color="#FF8607" />
      <stop offset="0.7" stop-color="#FF3C15" />
      <stop offset="1" stop-color="#FF0558" />
    </linearGradient>
    <linearGradient id="paint22_linear" x1="132.431" y1="390.027" x2="413.01" y2="322.798"
      gradientUnits="userSpaceOnUse">
      <stop stop-color="#FFD200" />
      <stop offset="0.32" stop-color="#FF8607" />
      <stop offset="0.7" stop-color="#FF3C15" />
      <stop offset="1" stop-color="#FF0558" />
    </linearGradient>
    <linearGradient id="paint23_linear" x1="-2.73029" y1="3.33549" x2="51.7259" y2="25.2807"
      gradientUnits="userSpaceOnUse">
      <stop stop-color="#FFD200" />
      <stop offset="0.32" stop-color="#FC8524" />
      <stop offset="0.49" stop-color="#F53F3E" />
      <stop offset="1" stop-color="#931426" />
    </linearGradient>
    <clipPath id="clip0">
      <rect width="251.974" height="50" fill="white" />
    </clipPath>
  </defs>
</svg>
