<svg width="68" height="68" viewBox="0 0 68 68" fill="none" xmlns="http://www.w3.org/2000/svg">
<rect x="4" y="4" width="60" height="60" rx="10" fill="#6AB2B4"/>
<path d="M52.4482 28.9473C51.9331 28.6645 51.5035 28.2486 51.2043 27.7429C50.9051 27.2372 50.7472 26.6605 50.7473 26.0729V24.4393H51.6683C52.3594 24.4385 53.0219 24.1637 53.5105 23.675C53.9991 23.1864 54.274 22.5239 54.2748 21.8329V16.6065C54.274 15.9154 53.9992 15.2529 53.5105 14.7643C53.0219 14.2756 52.3594 14.0008 51.6683 14H32.5932C31.9022 14.0008 31.2397 14.2756 30.751 14.7643C30.2624 15.2529 29.9875 15.9154 29.9867 16.6065V21.8329C29.9875 22.5239 30.2624 23.1864 30.751 23.675C31.2397 24.1637 31.9022 24.4385 32.5932 24.4393H33.5143V26.0729C33.5143 26.6605 33.3565 27.2372 33.0573 27.7429C32.758 28.2486 32.3284 28.6645 31.8134 28.9473C30.6125 29.6065 29.6109 30.5764 28.9132 31.7553C28.2156 32.9343 27.8476 34.2791 27.8477 35.649V50.9493C27.849 52.1111 28.311 53.2249 29.1325 54.0464C29.954 54.8679 31.0678 55.33 32.2296 55.3313H52.0319C53.1937 55.33 54.3075 54.8679 55.129 54.0464C55.9505 53.2249 56.4126 52.1111 56.4139 50.9493V35.649C56.414 34.2791 56.046 32.9343 55.3483 31.7553C54.6507 30.5764 53.6491 29.6065 52.4482 28.9473ZM32.5932 15.2891H34.572V18.2397C34.572 18.4106 34.6399 18.5746 34.7608 18.6955C34.8817 18.8163 35.0456 18.8842 35.2165 18.8842C35.3875 18.8842 35.5514 18.8163 35.6723 18.6955C35.7932 18.5746 35.8611 18.4106 35.8611 18.2397V15.2891H39.1059V18.2397C39.1059 18.4106 39.1738 18.5746 39.2946 18.6955C39.4155 18.8163 39.5794 18.8842 39.7504 18.8842C39.9213 18.8842 40.0853 18.8163 40.2061 18.6955C40.327 18.5746 40.3949 18.4106 40.3949 18.2397V15.2891H43.6397V18.2397C43.6397 18.4106 43.7076 18.5746 43.8285 18.6955C43.9494 18.8163 44.1133 18.8842 44.2842 18.8842C44.4552 18.8842 44.6191 18.8163 44.74 18.6955C44.8609 18.5746 44.9288 18.4106 44.9288 18.2397V15.2891H48.1736V18.2397C48.1736 18.4106 48.2415 18.5746 48.3623 18.6955C48.4832 18.8163 48.6472 18.8842 48.8181 18.8842C48.989 18.8842 49.153 18.8163 49.2738 18.6955C49.3947 18.5746 49.4626 18.4106 49.4626 18.2397V15.2891H51.6683C52.0176 15.2895 52.3525 15.4284 52.5994 15.6754C52.8464 15.9223 52.9853 16.2572 52.9857 16.6065V21.1383H31.2758V16.6065C31.2762 16.2572 31.4151 15.9223 31.6621 15.6754C31.9091 15.4284 32.2439 15.2895 32.5932 15.2891Z" fill="#357A7B"/>
<path d="M48.9546 33.7217H35.3066C34.5769 33.7225 33.8773 34.0128 33.3613 34.5287C32.8453 35.0447 32.555 35.7443 32.5542 36.4741V46.6133C32.555 47.343 32.8453 48.0426 33.3613 48.5586C33.8773 49.0745 34.5769 49.3648 35.3066 49.3656H48.9546C49.6843 49.3648 50.3839 49.0745 50.8999 48.5585C51.4159 48.0426 51.7062 47.343 51.707 46.6132V36.4741C51.7062 35.7443 51.4159 35.0447 50.8999 34.5287C50.3839 34.0128 49.6843 33.7225 48.9546 33.7217ZM50.4179 46.6133C50.4175 47.0012 50.2632 47.3732 49.9889 47.6475C49.7145 47.9218 49.3426 48.0761 48.9546 48.0766H35.3066C34.9186 48.0761 34.5467 47.9218 34.2723 47.6475C33.998 47.3732 33.8437 47.0012 33.8433 46.6132V36.4741C33.8437 36.0861 33.998 35.7141 34.2723 35.4398C34.5467 35.1655 34.9186 35.0112 35.3066 35.0107H48.9546C49.3426 35.0112 49.7145 35.1655 49.9889 35.4398C50.2632 35.7141 50.4175 36.0861 50.4179 36.4741V46.6133Z" fill="#6AB2B4"/>
<path d="M47.7068 36.6685H36.5573C36.2999 36.6685 36.0531 36.7707 35.8711 36.9527C35.6892 37.1347 35.5869 37.3815 35.5869 37.6388V45.4834C35.5869 45.7408 35.6892 45.9876 35.8711 46.1695C36.0531 46.3515 36.2999 46.4538 36.5573 46.4538H47.7068C47.9642 46.4538 48.211 46.3515 48.393 46.1695C48.575 45.9876 48.6772 45.7408 48.6772 45.4834V37.6388C48.6772 37.3815 48.575 37.1347 48.393 36.9527C48.211 36.7707 47.9642 36.6685 47.7068 36.6685ZM43.9505 42.179H42.7766V43.3529C42.7766 43.5238 42.7087 43.6877 42.5878 43.8086C42.4669 43.9295 42.303 43.9974 42.1321 43.9974C41.9611 43.9974 41.7972 43.9295 41.6763 43.8086C41.5554 43.6877 41.4875 43.5238 41.4875 43.3529V42.179H40.3135C40.1426 42.179 39.9787 42.1111 39.8578 41.9902C39.7369 41.8693 39.669 41.7054 39.669 41.5345C39.669 41.3635 39.7369 41.1996 39.8578 41.0787C39.9787 40.9578 40.1426 40.8899 40.3135 40.8899H41.4875V39.716C41.4875 39.545 41.5554 39.3811 41.6763 39.2602C41.7972 39.1393 41.9611 39.0714 42.1321 39.0714C42.303 39.0714 42.4669 39.1393 42.5878 39.2602C42.7087 39.3811 42.7766 39.545 42.7766 39.716V40.8899H43.9505C44.1215 40.8899 44.2854 40.9578 44.4063 41.0787C44.5271 41.1996 44.595 41.3635 44.595 41.5345C44.595 41.7054 44.5271 41.8693 44.4063 41.9902C44.2854 42.1111 44.1215 42.179 43.9505 42.179Z" fill="#6AB2B4"/>
<path d="M18.3107 31.2876C16.7924 31.2893 15.3368 31.8932 14.2632 32.9668C13.1896 34.0403 12.5858 35.4959 12.584 37.0142V49.0515C12.5809 49.8055 12.7268 50.5527 13.0132 51.2502C13.2996 51.9477 13.7209 52.5818 14.253 53.116C14.785 53.6503 15.4174 54.0742 16.1137 54.3635C16.81 54.6527 17.5566 54.8016 18.3106 54.8016C19.0647 54.8016 19.8113 54.6527 20.5076 54.3635C21.2039 54.0742 21.8362 53.6503 22.3683 53.116C22.9004 52.5818 23.3217 51.9477 23.6081 51.2502C23.8945 50.5527 24.0404 49.8055 24.0373 49.0515V37.0143C24.0356 35.496 23.4317 34.0404 22.3581 32.9668C21.2845 31.8932 19.829 31.2893 18.3107 31.2876ZM18.3107 53.489C17.1342 53.4877 16.0062 53.0197 15.1743 52.1878C14.3424 51.3559 13.8744 50.2279 13.8731 49.0514V43.3296H22.7482V49.0514C22.7469 50.2279 22.2789 51.3559 21.447 52.1878C20.6151 53.0197 19.4872 53.4877 18.3107 53.489V53.489Z" fill="#357A7B"/>
<path d="M18.3094 14.0439C16.9626 14.044 15.6461 14.4433 14.5263 15.1916C13.4065 15.9398 12.5337 17.0033 12.0183 18.2476C11.5029 19.4918 11.3681 20.861 11.6308 22.1819C11.8936 23.5028 12.5421 24.7161 13.4944 25.6684C14.4468 26.6208 15.6601 27.2693 16.981 27.532C18.3019 27.7948 19.671 27.66 20.9153 27.1446C22.1596 26.6292 23.2231 25.7564 23.9713 24.6366C24.7196 23.5168 25.1189 22.2003 25.1189 20.8535C25.1169 19.0481 24.3988 17.3173 23.1222 16.0407C21.8457 14.7641 20.1148 14.046 18.3094 14.0439ZM12.8279 21.1391V20.8855C12.8212 20.0412 13.0072 19.2065 13.3717 18.4449C13.7362 17.6833 14.2697 17.0149 14.9315 16.4906C15.8976 15.7403 17.0861 15.333 18.3094 15.333C19.5327 15.333 20.7212 15.7403 21.6874 16.4906C22.3492 17.0149 22.8827 17.6833 23.2472 18.4449C23.6118 19.2065 23.7977 20.0412 23.791 20.8855V21.1391L12.8279 21.1391Z" fill="#357A7B"/>
<rect x="1" y="1" width="66" height="66" rx="13" stroke="#6AB2B4" stroke-width="2"/>
</svg>
